<?xml version="1.0" standalone="no"?>
<!DOCTYPE svg PUBLIC "-//W3C//DTD SVG 20010904//EN"
 "http://www.w3.org/TR/2001/REC-SVG-20010904/DTD/svg10.dtd">
<svg version="1.0" xmlns="http://www.w3.org/2000/svg"
 width="700.000000pt" height="700.000000pt" viewBox="0 0 700.000000 700.000000"
 preserveAspectRatio="xMidYMid meet">
<metadata>
Created by potrace 1.14, written by Peter Selinger 2001-2017
</metadata>
<g transform="translate(0.000000,700.000000) scale(0.100000,-0.100000)"
fill="#000000" stroke="none">
<path d="M0 3500 l0 -3500 3500 0 3500 0 0 3500 0 3500 -3500 0 -3500 0 0
-3500z m2740 533 c0 -1601 -4 -1771 -36 -1943 -48 -257 -169 -497 -345 -682
l-55 -58 -473 0 -473 0 18 28 c183 277 290 583 324 931 6 65 10 696 10 1717
l0 1614 515 0 515 0 0 -1607z m1901 1597 c593 -59 886 -273 982 -720 29 -133
31 -474 4 -598 -26 -119 -59 -210 -114 -315 -39 -75 -66 -110 -148 -192 -111
-111 -197 -166 -344 -221 -187 -70 -317 -84 -783 -84 l-378 0 0 -615 0 -615
-460 0 -460 0 0 945 0 944 708 3 707 3 69 24 c56 18 80 34 127 80 49 49 61 69
79 130 29 95 25 270 -8 343 -27 60 -85 124 -136 150 -83 42 -128 48 -408 48
l-268 0 0 -225 0 -225 -460 0 -460 0 0 575 0 575 824 0 c485 0 866 -4 927 -10z"/>
</g>
</svg>
